<svg viewBox="0 0 20 24" fill="none" xmlns="http://www.w3.org/2000/svg">
<path d="M4.8 12V9.6H14.4V12H4.8ZM4.8 7.2V4.8H14.4V7.2H4.8ZM2.4 14.4H11.4C11.98 14.4 12.52 14.5248 13.02 14.7744C13.52 15.0248 13.94 15.38 14.28 15.84L16.8 19.14V2.4H2.4V14.4ZM2.4 21.6H15.66L12.39 17.31C12.27 17.15 12.1252 17.0252 11.9556 16.9356C11.7852 16.8452 11.6 16.8 11.4 16.8H2.4V21.6ZM16.8 24H2.4C1.74 24 1.1752 23.7652 0.7056 23.2956C0.2352 22.8252 0 22.26 0 21.6V2.4C0 1.74 0.2352 1.1748 0.7056 0.7044C1.1752 0.2348 1.74 0 2.4 0H16.8C17.46 0 18.0252 0.2348 18.4956 0.7044C18.9652 1.1748 19.2 1.74 19.2 2.4V21.6C19.2 22.26 18.9652 22.8252 18.4956 23.2956C18.0252 23.7652 17.46 24 16.8 24Z" fill="#C4C4C4"/>
</svg>
