<svg viewBox="0 0 24 14" fill="none" xmlns="http://www.w3.org/2000/svg">
<path d="M21.8182 0H2.18182C0.981818 0 0 1.05 0 2.33333V11.6667C0 12.95 0.981818 14 2.18182 14H21.8182C23.0182 14 24 12.95 24 11.6667V7V2.33333C24 1.05 23.0182 0 21.8182 0ZM21.8182 11.6667H2.18182V2.33333H21.8182V11.6667ZM5.45455 10.5H7.63636V8.16667H9.81818V5.83333H7.63636V3.5H5.45455V5.83333H3.27273V8.16667H5.45455V10.5Z" fill="#C4C4C4"/>
<path d="M14.7273 10.5C15.631 10.5 16.3636 9.7165 16.3636 8.75C16.3636 7.7835 15.631 7 14.7273 7C13.8235 7 13.0909 7.7835 13.0909 8.75C13.0909 9.7165 13.8235 10.5 14.7273 10.5Z" fill="#C4C4C4"/>
<path d="M19.0909 7C19.9946 7 20.7273 6.2165 20.7273 5.25C20.7273 4.2835 19.9946 3.5 19.0909 3.5C18.1872 3.5 17.4545 4.2835 17.4545 5.25C17.4545 6.2165 18.1872 7 19.0909 7Z" fill="#C4C4C4"/>
</svg>
