<svg viewBox="0 0 24 18" fill="none" xmlns="http://www.w3.org/2000/svg">
<path d="M3.6 4.5C3.94 4.5 4.2248 4.39237 4.4544 4.17712C4.6848 3.96112 4.8 3.69375 4.8 3.375V1.125C4.8 0.80625 4.6848 0.538875 4.4544 0.322875C4.2248 0.107625 3.94 0 3.6 0H1.2C0.860001 0 0.575201 0.107625 0.3456 0.322875C0.1152 0.538875 0 0.80625 0 1.125V3.375C0 3.69375 0.1152 3.96112 0.3456 4.17712C0.575201 4.39237 0.860001 4.5 1.2 4.5H3.6ZM3.6 11.25C3.94 11.25 4.2248 11.142 4.4544 10.926C4.6848 10.7107 4.8 10.4438 4.8 10.125V7.875C4.8 7.55625 4.6848 7.28887 4.4544 7.07287C4.2248 6.85762 3.94 6.75 3.6 6.75H1.2C0.860001 6.75 0.575201 6.85762 0.3456 7.07287C0.1152 7.28887 0 7.55625 0 7.875V10.125C0 10.4438 0.1152 10.7107 0.3456 10.926C0.575201 11.142 0.860001 11.25 1.2 11.25H3.6ZM22.8 18C23.14 18 23.4248 17.892 23.6544 17.676C23.8848 17.4608 24 17.1938 24 16.875V1.125C24 0.80625 23.8848 0.538875 23.6544 0.322875C23.4248 0.107625 23.14 0 22.8 0H8.4C8.06 0 7.7748 0.107625 7.5444 0.322875C7.3148 0.538875 7.2 0.80625 7.2 1.125V16.875C7.2 17.1938 7.3148 17.4608 7.5444 17.676C7.7748 17.892 8.06 18 8.4 18H22.8ZM3.6 18C3.94 18 4.2248 17.892 4.4544 17.676C4.6848 17.4608 4.8 17.1938 4.8 16.875V14.625C4.8 14.3063 4.6848 14.0393 4.4544 13.824C4.2248 13.608 3.94 13.5 3.6 13.5H1.2C0.860001 13.5 0.575201 13.608 0.3456 13.824C0.1152 14.0393 0 14.3063 0 14.625V16.875C0 17.1938 0.1152 17.4608 0.3456 17.676C0.575201 17.892 0.860001 18 1.2 18H3.6Z" fill="#C4C4C4"/>
</svg>
